<svg xmlns="http://www.w3.org/2000/svg" xmlns:xlink="http://www.w3.org/1999/xlink" width="450" zoomAndPan="magnify" viewBox="0 0 337.5 187.499995" height="250" preserveAspectRatio="xMidYMid meet" version="1.0"><defs><g/><clipPath id="2654f77f3e"><path d="M 0.199219 0 L 336.800781 0 L 336.800781 187 L 0.199219 187 Z M 0.199219 0 " clip-rule="nonzero"/></clipPath><clipPath id="da05056e34"><path d="M 150 54.179688 L 191 54.179688 L 191 112 L 150 112 Z M 150 54.179688 " clip-rule="nonzero"/></clipPath><clipPath id="fe86e93ac3"><path d="M 117 85 L 223.667969 85 L 223.667969 152.167969 L 117 152.167969 Z M 117 85 " clip-rule="nonzero"/></clipPath><clipPath id="c3d92ce1c1"><path d="M 112.964844 111 L 216 111 L 216 152.167969 L 112.964844 152.167969 Z M 112.964844 111 " clip-rule="nonzero"/></clipPath></defs><g clip-path="url(#2654f77f3e)"><path fill="#ffffff" d="M 0.199219 0 L 336.800781 0 L 336.800781 187 L 0.199219 187 Z M 0.199219 0 " fill-opacity="1" fill-rule="nonzero"/><path fill="#ffffff" d="M 0.199219 0 L 336.800781 0 L 336.800781 187 L 0.199219 187 Z M 0.199219 0 " fill-opacity="1" fill-rule="nonzero"/></g><g fill="#29303a" fill-opacity="1"><g transform="translate(117.650516, 63.37367)"><g><path d="M -0.53125 -1.515625 C -0.925781 -1.503906 -1.1875 -1.550781 -1.3125 -1.65625 C -1.445312 -1.757812 -1.539062 -2.007812 -1.59375 -2.40625 C -1.644531 -2.8125 -1.648438 -3.054688 -1.609375 -3.140625 C -1.578125 -3.222656 -1.535156 -3.300781 -1.484375 -3.375 C -1.429688 -3.445312 -1.304688 -3.523438 -1.109375 -3.609375 C 0.015625 -3.890625 0.785156 -4.296875 1.203125 -4.828125 C 1.617188 -5.367188 1.765625 -5.816406 1.640625 -6.171875 C 1.515625 -6.535156 1.25 -6.875 0.84375 -7.1875 C 0.4375 -7.507812 0 -7.617188 -0.46875 -7.515625 C -0.945312 -7.421875 -1.617188 -7.179688 -2.484375 -6.796875 C -3.347656 -6.410156 -4.253906 -6.191406 -5.203125 -6.140625 C -6.148438 -6.097656 -6.929688 -6.3125 -7.546875 -6.78125 C -8.617188 -7.625 -9.1875 -8.519531 -9.25 -9.46875 C -9.3125 -10.414062 -8.921875 -11.4375 -8.078125 -12.53125 C -7.566406 -13.195312 -6.898438 -13.722656 -6.078125 -14.109375 C -5.691406 -14.347656 -5.425781 -14.394531 -5.28125 -14.25 C -5.238281 -14.195312 -5.164062 -14.125 -5.0625 -14.03125 C -4.675781 -13.445312 -4.488281 -13.078125 -4.5 -12.921875 C -4.488281 -12.867188 -4.519531 -12.789062 -4.59375 -12.6875 C -4.675781 -12.59375 -4.96875 -12.390625 -5.46875 -12.078125 C -5.96875 -11.765625 -6.332031 -11.457031 -6.5625 -11.15625 C -6.789062 -10.851562 -6.878906 -10.515625 -6.828125 -10.140625 C -6.773438 -9.773438 -6.554688 -9.441406 -6.171875 -9.140625 C -5.796875 -8.847656 -5.3125 -8.753906 -4.71875 -8.859375 C -4.132812 -8.960938 -3.394531 -9.242188 -2.5 -9.703125 C -1.519531 -10.148438 -0.671875 -10.398438 0.046875 -10.453125 C 0.773438 -10.515625 1.492188 -10.273438 2.203125 -9.734375 C 4.578125 -7.878906 4.988281 -5.945312 3.4375 -3.9375 C 2.269531 -2.4375 0.945312 -1.628906 -0.53125 -1.515625 Z M -0.53125 -1.515625 "/></g></g></g><g fill="#29303a" fill-opacity="1"><g transform="translate(124.074826, 55.25312)"><g><path d="M -0.578125 -10.8125 C -0.210938 -11.144531 0.117188 -11.148438 0.421875 -10.828125 C 0.816406 -10.398438 1.0625 -10.078125 1.15625 -9.859375 C 1.25 -9.640625 1.1875 -9.429688 0.96875 -9.234375 L -1.671875 -6.78125 L 0.984375 -3.921875 L 4.09375 -6.796875 C 4.3125 -6.984375 4.492188 -7.078125 4.640625 -7.078125 C 4.796875 -7.085938 4.941406 -7.015625 5.078125 -6.859375 C 5.492188 -6.421875 5.738281 -6.078125 5.8125 -5.828125 C 5.882812 -5.585938 5.796875 -5.359375 5.546875 -5.140625 L 0.8125 -0.75 L 0.40625 -0.78125 L -8.734375 -10.671875 L -3.96875 -15.09375 C -3.582031 -15.425781 -3.257812 -15.453125 -3 -15.171875 C -2.78125 -14.929688 -2.613281 -14.734375 -2.5 -14.578125 C -2.394531 -14.421875 -2.328125 -14.234375 -2.296875 -14.015625 C -2.265625 -13.796875 -2.34375 -13.601562 -2.53125 -13.4375 L -5.515625 -10.671875 L -3.171875 -8.40625 Z M -0.578125 -10.8125 "/></g></g></g><g fill="#29303a" fill-opacity="1"><g transform="translate(131.168188, 48.727597)"><g><path d="M 0.453125 -0.8125 L -6.875 -11.953125 C -5.9375 -12.796875 -5.085938 -13.472656 -4.328125 -13.984375 C -2.898438 -14.910156 -1.742188 -15.285156 -0.859375 -15.109375 C 0.0234375 -14.929688 0.867188 -14.234375 1.671875 -13.015625 C 2.796875 -11.304688 3.066406 -9.847656 2.484375 -8.640625 L 7.28125 -5.546875 C 7.5625 -5.367188 7.726562 -5.238281 7.78125 -5.15625 C 7.832031 -5.082031 7.847656 -5.03125 7.828125 -5 C 7.859375 -4.875 7.722656 -4.710938 7.421875 -4.515625 C 6.421875 -3.867188 5.710938 -3.6875 5.296875 -3.96875 L 0.890625 -6.84375 C 0.640625 -6.65625 0.257812 -6.394531 -0.25 -6.0625 L 2.359375 -2.109375 C 2.535156 -1.828125 2.617188 -1.628906 2.609375 -1.515625 C 2.609375 -1.410156 2.460938 -1.265625 2.171875 -1.078125 C 1.285156 -0.492188 0.710938 -0.40625 0.453125 -0.8125 Z M -1.375 -8.3125 C -0.550781 -8.851562 -0.0703125 -9.332031 0.0625 -9.75 C 0.195312 -10.164062 0 -10.78125 -0.53125 -11.59375 C -0.84375 -12.082031 -1.175781 -12.414062 -1.53125 -12.59375 C -1.882812 -12.78125 -2.160156 -12.8125 -2.359375 -12.6875 C -3.078125 -12.207031 -3.503906 -11.898438 -3.640625 -11.765625 C -3.785156 -11.628906 -3.800781 -11.476562 -3.6875 -11.3125 L -1.765625 -8.390625 C -1.679688 -8.265625 -1.609375 -8.207031 -1.546875 -8.21875 C -1.492188 -8.238281 -1.4375 -8.269531 -1.375 -8.3125 Z M -1.375 -8.3125 "/></g></g></g><g fill="#29303a" fill-opacity="1"><g transform="translate(139.926737, 43.009842)"><g><path d="M 2.65625 -16.421875 C 3.40625 -16.742188 3.847656 -16.742188 3.984375 -16.421875 C 4.015625 -16.359375 4.035156 -16.296875 4.046875 -16.234375 L 6.296875 -3.109375 C 6.359375 -2.828125 6.359375 -2.625 6.296875 -2.5 C 6.234375 -2.382812 5.976562 -2.234375 5.53125 -2.046875 C 4.488281 -1.597656 3.820312 -1.566406 3.53125 -1.953125 L -4.828125 -12.484375 C -4.859375 -12.523438 -4.882812 -12.570312 -4.90625 -12.625 C -5.039062 -12.945312 -4.726562 -13.269531 -3.96875 -13.59375 C -3.601562 -13.75 -3.289062 -13.820312 -3.03125 -13.8125 C -2.78125 -13.8125 -2.566406 -13.691406 -2.390625 -13.453125 L 3.71875 -5.453125 L 1.890625 -15.375 C 1.835938 -15.632812 1.863281 -15.835938 1.96875 -15.984375 C 2.070312 -16.128906 2.300781 -16.273438 2.65625 -16.421875 Z M 2.65625 -16.421875 "/></g></g></g><g fill="#29303a" fill-opacity="1"><g transform="translate(150.524373, 38.752738)"><g><path d="M 0.484375 -2.40625 L 1.109375 -2.578125 L -1.21875 -11.640625 L -1.734375 -11.5 C -1.984375 -11.445312 -2.160156 -11.484375 -2.265625 -11.609375 C -2.398438 -11.742188 -2.523438 -12.035156 -2.640625 -12.484375 C -2.804688 -13.140625 -2.691406 -13.519531 -2.296875 -13.625 L 0.828125 -14.4375 C 1.347656 -14.570312 1.65625 -14.457031 1.75 -14.09375 C 2.019531 -13.039062 1.953125 -12.457031 1.546875 -12.34375 L 1.109375 -12.234375 L 2.171875 -8.734375 L 3.625 -3.21875 L 4.15625 -3.359375 C 4.582031 -3.460938 4.84375 -3.328125 4.9375 -2.953125 C 5.175781 -1.898438 5.019531 -1.300781 4.46875 -1.15625 L 1.125 -0.296875 C 0.90625 -0.242188 0.738281 -0.28125 0.625 -0.40625 C 0.488281 -0.550781 0.363281 -0.847656 0.25 -1.296875 C 0.0703125 -1.953125 0.148438 -2.320312 0.484375 -2.40625 Z M 0.484375 -2.40625 "/></g></g></g><g fill="#29303a" fill-opacity="1"><g transform="translate(157.202159, 36.981367)"><g><path d="M 7.6875 -3.046875 C 7.988281 -3.078125 8.160156 -2.898438 8.203125 -2.515625 C 8.253906 -2.128906 8.285156 -1.84375 8.296875 -1.65625 C 8.296875 -1.195312 8.128906 -0.921875 7.796875 -0.828125 C 6.722656 -0.546875 5.929688 -0.375 5.421875 -0.3125 C 3.609375 -0.101562 2.304688 -0.472656 1.515625 -1.421875 C 0.722656 -2.367188 0.175781 -4.171875 -0.125 -6.828125 C -0.34375 -8.765625 -0.363281 -10.257812 -0.1875 -11.3125 C -0.0195312 -12.375 0.367188 -13.148438 0.984375 -13.640625 C 1.609375 -14.128906 2.578125 -14.445312 3.890625 -14.59375 C 5.210938 -14.738281 6.203125 -14.640625 6.859375 -14.296875 C 6.984375 -14.234375 7.050781 -14.140625 7.0625 -14.015625 C 7.070312 -13.898438 7.039062 -13.664062 6.96875 -13.3125 C 6.894531 -12.96875 6.816406 -12.71875 6.734375 -12.5625 C 6.648438 -12.414062 6.550781 -12.332031 6.4375 -12.3125 C 6.332031 -12.300781 6.242188 -12.300781 6.171875 -12.3125 C 5.234375 -12.394531 4.429688 -12.394531 3.765625 -12.3125 C 3.109375 -12.238281 2.722656 -11.828125 2.609375 -11.078125 C 2.492188 -10.328125 2.53125 -9.132812 2.71875 -7.5 C 2.90625 -5.875 3.078125 -4.742188 3.234375 -4.109375 C 3.390625 -3.484375 3.597656 -3.054688 3.859375 -2.828125 C 4.117188 -2.597656 4.503906 -2.507812 5.015625 -2.5625 C 5.523438 -2.625 6.09375 -2.71875 6.71875 -2.84375 C 7.34375 -2.976562 7.664062 -3.046875 7.6875 -3.046875 Z M 7.6875 -3.046875 "/></g></g></g><g fill="#29303a" fill-opacity="1"><g transform="translate(167.217817, 36.017142)"><g><path d="M 1.140625 -2.1875 L 1.796875 -2.171875 L 2.03125 -11.53125 L 1.484375 -11.546875 C 1.242188 -11.566406 1.085938 -11.648438 1.015625 -11.796875 C 0.921875 -11.960938 0.878906 -12.273438 0.890625 -12.734375 C 0.910156 -13.410156 1.125 -13.742188 1.53125 -13.734375 L 4.765625 -13.65625 C 5.304688 -13.632812 5.570312 -13.4375 5.5625 -13.0625 C 5.53125 -11.976562 5.300781 -11.441406 4.875 -11.453125 L 4.421875 -11.46875 L 4.5 -7.796875 L 4.390625 -2.109375 L 4.9375 -2.09375 C 5.363281 -2.070312 5.570312 -1.867188 5.5625 -1.484375 C 5.5 -0.398438 5.179688 0.132812 4.609375 0.125 L 1.15625 0.03125 C 0.9375 0.0078125 0.785156 -0.0703125 0.703125 -0.21875 C 0.617188 -0.394531 0.582031 -0.710938 0.59375 -1.171875 C 0.613281 -1.859375 0.796875 -2.195312 1.140625 -2.1875 Z M 1.140625 -2.1875 "/></g></g></g><g fill="#29303a" fill-opacity="1"><g transform="translate(174.051861, 36.071001)"><g><path d="M 1.859375 -6.5625 C 2.203125 -8.46875 2.617188 -9.90625 3.109375 -10.875 C 3.597656 -11.84375 4.207031 -12.472656 4.9375 -12.765625 C 5.664062 -13.054688 6.644531 -13.085938 7.875 -12.859375 C 9.113281 -12.640625 10.023438 -12.265625 10.609375 -11.734375 C 11.191406 -11.210938 11.539062 -10.414062 11.65625 -9.34375 C 11.769531 -8.269531 11.648438 -6.773438 11.296875 -4.859375 C 10.828125 -2.222656 10.164062 -0.460938 9.3125 0.421875 C 8.457031 1.304688 7.132812 1.585938 5.34375 1.265625 C 3.550781 0.941406 2.40625 0.21875 1.90625 -0.90625 C 1.40625 -2.039062 1.390625 -3.925781 1.859375 -6.5625 Z M 5.484375 -9.375 C 5.328125 -8.9375 5.203125 -8.488281 5.109375 -8.03125 C 5.015625 -7.570312 4.867188 -6.789062 4.671875 -5.6875 C 4.472656 -4.582031 4.34375 -3.648438 4.28125 -2.890625 C 4.21875 -2.128906 4.222656 -1.625 4.296875 -1.375 C 4.378906 -1.125 4.519531 -0.976562 4.71875 -0.9375 C 5.78125 -0.75 6.492188 -0.734375 6.859375 -0.890625 C 6.992188 -0.953125 7.132812 -1.066406 7.28125 -1.234375 C 7.4375 -1.398438 7.554688 -1.582031 7.640625 -1.78125 C 7.722656 -1.976562 7.820312 -2.273438 7.9375 -2.671875 C 8.0625 -3.171875 8.242188 -4.09375 8.484375 -5.4375 C 8.722656 -6.78125 8.882812 -7.84375 8.96875 -8.625 C 9.050781 -9.414062 9.050781 -9.960938 8.96875 -10.265625 C 8.894531 -10.566406 8.753906 -10.738281 8.546875 -10.78125 C 8.066406 -10.863281 7.675781 -10.910156 7.375 -10.921875 C 7.082031 -10.941406 6.804688 -10.890625 6.546875 -10.765625 C 6.285156 -10.640625 6.082031 -10.484375 5.9375 -10.296875 C 5.789062 -10.117188 5.640625 -9.8125 5.484375 -9.375 Z M 5.484375 -9.375 "/></g></g></g><g fill="#29303a" fill-opacity="1"><g transform="translate(185.476413, 38.262244)"><g><path d="M 1.28125 -0.953125 C 1.164062 -1.335938 1.132812 -1.609375 1.1875 -1.765625 C 1.25 -1.921875 1.460938 -2.078125 1.828125 -2.234375 C 2.191406 -2.398438 2.421875 -2.476562 2.515625 -2.46875 C 2.609375 -2.46875 2.695312 -2.453125 2.78125 -2.421875 C 2.863281 -2.390625 2.972656 -2.285156 3.109375 -2.109375 C 3.710938 -1.140625 4.332031 -0.535156 4.96875 -0.296875 C 5.601562 -0.0546875 6.078125 -0.046875 6.390625 -0.265625 C 6.703125 -0.492188 6.945312 -0.847656 7.125 -1.328125 C 7.300781 -1.804688 7.269531 -2.253906 7.03125 -2.671875 C 6.800781 -3.097656 6.375 -3.671875 5.75 -4.390625 C 5.125 -5.109375 4.644531 -5.914062 4.3125 -6.8125 C 3.988281 -7.707031 3.960938 -8.515625 4.234375 -9.234375 C 4.710938 -10.503906 5.394531 -11.304688 6.28125 -11.640625 C 7.175781 -11.984375 8.269531 -11.914062 9.5625 -11.4375 C 10.351562 -11.144531 11.054688 -10.660156 11.671875 -9.984375 C 12.003906 -9.679688 12.125 -9.445312 12.03125 -9.28125 C 12 -9.21875 11.957031 -9.125 11.90625 -9 C 11.457031 -8.457031 11.15625 -8.164062 11 -8.125 C 10.945312 -8.113281 10.859375 -8.128906 10.734375 -8.171875 C 10.617188 -8.210938 10.335938 -8.425781 9.890625 -8.8125 C 9.453125 -9.195312 9.054688 -9.453125 8.703125 -9.578125 C 8.347656 -9.710938 8 -9.695312 7.65625 -9.53125 C 7.320312 -9.375 7.066406 -9.066406 6.890625 -8.609375 C 6.722656 -8.160156 6.773438 -7.671875 7.046875 -7.140625 C 7.328125 -6.609375 7.820312 -5.984375 8.53125 -5.265625 C 9.25 -4.460938 9.738281 -3.722656 10 -3.046875 C 10.269531 -2.367188 10.25 -1.613281 9.9375 -0.78125 C 8.875 2.039062 7.15625 3.003906 4.78125 2.109375 C 3 1.441406 1.832031 0.421875 1.28125 -0.953125 Z M 1.28125 -0.953125 "/></g></g></g><g fill="#29303a" fill-opacity="1"><g transform="translate(195.255241, 42.164074)"><g/></g></g><g fill="#29303a" fill-opacity="1"><g transform="translate(200.445451, 44.800032)"><g><path d="M 8.40625 -10.75 C 8.570312 -10.976562 8.976562 -10.851562 9.625 -10.375 C 10.269531 -9.90625 10.535156 -9.429688 10.421875 -8.953125 L 9.828125 -3.953125 L 14.21875 -6.203125 C 14.4375 -6.359375 14.640625 -6.414062 14.828125 -6.375 C 15.023438 -6.34375 15.269531 -6.222656 15.5625 -6.015625 C 16.238281 -5.515625 16.488281 -5.140625 16.3125 -4.890625 C 16.257812 -4.835938 16.191406 -4.789062 16.109375 -4.75 L 9.109375 -1.234375 L 5.546875 3.59375 C 5.421875 3.757812 5.328125 3.867188 5.265625 3.921875 C 5.128906 4.035156 4.890625 3.960938 4.546875 3.703125 C 3.785156 3.148438 3.539062 2.6875 3.8125 2.3125 L 7.375 -2.5 L 8.3125 -10.53125 C 8.332031 -10.613281 8.363281 -10.6875 8.40625 -10.75 Z M 8.40625 -10.75 "/></g></g></g><g fill="#29303a" fill-opacity="1"><g transform="translate(209.436634, 51.540142)"><g><path d="M 13.984375 -5.703125 C 14.554688 -5.085938 14.734375 -4.625 14.515625 -4.3125 L 11.28125 0.453125 L 6.71875 6.515625 C 6.632812 6.609375 6.554688 6.691406 6.484375 6.765625 C 6.410156 6.835938 6.328125 6.875 6.234375 6.875 C 6.140625 6.875 5.96875 6.75 5.71875 6.5 C 4.976562 5.707031 4.753906 5.125 5.046875 4.75 L 7.34375 1.703125 L 5.578125 -0.15625 L 2.453125 2.03125 C 2.234375 2.175781 2.070312 2.257812 1.96875 2.28125 C 1.875 2.300781 1.785156 2.28125 1.703125 2.21875 C 1.628906 2.15625 1.519531 2.046875 1.375 1.890625 L 1.015625 1.515625 C 0.722656 1.203125 0.554688 0.988281 0.515625 0.875 C 0.398438 0.613281 0.375 0.425781 0.4375 0.3125 C 0.476562 0.257812 0.515625 0.21875 0.546875 0.1875 C 0.585938 0.15625 1.257812 -0.300781 2.5625 -1.1875 C 3.875 -2.070312 5.445312 -3.117188 7.28125 -4.328125 C 9.113281 -5.546875 10.3125 -6.34375 10.875 -6.71875 C 11.445312 -7.101562 11.765625 -7.316406 11.828125 -7.359375 C 12.066406 -7.523438 12.785156 -6.972656 13.984375 -5.703125 Z M 11.875 -4.46875 L 7.4375 -1.4375 L 8.671875 -0.125 Z M 11.875 -4.46875 "/></g></g></g><g fill="#29303a" fill-opacity="1"><g transform="translate(216.701311, 59.585188)"><g><path d="M 13.171875 -4.34375 L 4.671875 0.296875 L 3.78125 -1.296875 L 3.84375 -1.703125 L 8.59375 -4.75 L 12.203125 -6.625 L 13.25 -4.75 Z M 0.78125 1.578125 C 0.269531 0.867188 0.367188 0.257812 1.078125 -0.25 C 1.796875 -0.757812 2.410156 -0.660156 2.921875 0.046875 C 3.429688 0.765625 3.328125 1.378906 2.609375 1.890625 C 1.898438 2.398438 1.289062 2.296875 0.78125 1.578125 Z M 0.78125 1.578125 "/></g></g></g><g fill="#12465a" fill-opacity="1"><g transform="translate(109.647336, 174.322078)"><g><path d="M 2.8125 -0.140625 L 2.8125 -3.234375 L 2.359375 -2.40625 L 1.671875 -2.40625 L 1.265625 -3.21875 L 1.265625 -0.15625 C 1.265625 -0.0703125 1.257812 -0.015625 1.25 0.015625 C 1.226562 0.078125 1.140625 0.109375 0.984375 0.109375 C 0.535156 0.109375 0.3125 0.0234375 0.3125 -0.140625 L 0.3125 -4.96875 C 0.3125 -5.144531 0.46875 -5.234375 0.78125 -5.234375 C 1.09375 -5.234375 1.28125 -5.148438 1.34375 -4.984375 L 2.03125 -3.21875 L 2.75 -4.984375 C 2.789062 -5.085938 2.835938 -5.15625 2.890625 -5.1875 C 2.941406 -5.21875 3.03125 -5.234375 3.15625 -5.234375 C 3.488281 -5.234375 3.65625 -5.144531 3.65625 -4.96875 L 3.765625 -2.9375 L 3.765625 -0.1875 C 3.765625 -0.0507812 3.75 0.03125 3.71875 0.0625 C 3.695312 0.09375 3.617188 0.109375 3.484375 0.109375 C 3.347656 0.109375 3.234375 0.101562 3.140625 0.09375 C 3.054688 0.0820312 2.976562 0.0546875 2.90625 0.015625 C 2.84375 -0.015625 2.8125 -0.0664062 2.8125 -0.140625 Z M 2.8125 -0.140625 "/></g></g></g><g fill="#12465a" fill-opacity="1"><g transform="translate(114.973669, 174.322078)"><g><path d="M 2.03125 -5.234375 C 2.34375 -5.234375 2.515625 -5.164062 2.546875 -5.03125 L 3 -2.9375 L 3.46875 -0.15625 C 3.476562 -0.101562 3.484375 -0.0546875 3.484375 -0.015625 C 3.484375 0.015625 3.472656 0.0390625 3.453125 0.0625 C 3.429688 0.09375 3.351562 0.109375 3.21875 0.109375 C 2.8125 0.109375 2.597656 0.0195312 2.578125 -0.15625 L 2.34375 -1.546875 L 1.390625 -1.546875 L 1.171875 -0.140625 C 1.160156 -0.046875 1.144531 0.015625 1.125 0.046875 C 1.101562 0.078125 1.070312 0.09375 1.03125 0.09375 C 1 0.101562 0.941406 0.109375 0.859375 0.109375 L 0.671875 0.109375 C 0.503906 0.109375 0.40625 0.0976562 0.375 0.078125 C 0.269531 0.046875 0.210938 0.00390625 0.203125 -0.046875 C 0.191406 -0.0664062 0.1875 -0.0820312 0.1875 -0.09375 C 0.1875 -0.113281 0.234375 -0.414062 0.328125 -1 C 0.429688 -1.582031 0.550781 -2.273438 0.6875 -3.078125 C 0.820312 -3.878906 0.910156 -4.40625 0.953125 -4.65625 C 0.992188 -4.90625 1.019531 -5.046875 1.03125 -5.078125 C 1.050781 -5.179688 1.382812 -5.234375 2.03125 -5.234375 Z M 1.828125 -4.34375 L 1.515625 -2.375 L 2.1875 -2.375 Z M 1.828125 -4.34375 "/></g></g></g><g fill="#12465a" fill-opacity="1"><g transform="translate(119.904993, 174.322078)"><g><path d="M 0.3125 -0.15625 L 0.3125 -4.984375 C 0.3125 -5.148438 0.472656 -5.234375 0.796875 -5.234375 C 0.867188 -5.234375 0.921875 -5.226562 0.953125 -5.21875 C 0.992188 -5.21875 1.039062 -5.195312 1.09375 -5.15625 C 1.15625 -5.125 1.210938 -5.070312 1.265625 -5 L 2.484375 -2.125 L 2.4375 -4.984375 C 2.4375 -5.148438 2.597656 -5.234375 2.921875 -5.234375 C 3.066406 -5.234375 3.160156 -5.21875 3.203125 -5.1875 C 3.253906 -5.15625 3.285156 -5.085938 3.296875 -4.984375 L 3.40625 -2.9375 L 3.40625 -0.140625 C 3.40625 -0.0664062 3.398438 -0.015625 3.390625 0.015625 C 3.367188 0.078125 3.28125 0.109375 3.125 0.109375 C 2.832031 0.109375 2.65625 0.0234375 2.59375 -0.140625 L 1.25 -2.96875 L 1.265625 -0.15625 C 1.265625 -0.0703125 1.257812 -0.015625 1.25 0.015625 C 1.226562 0.078125 1.140625 0.109375 0.984375 0.109375 C 0.535156 0.109375 0.3125 0.0195312 0.3125 -0.15625 Z M 0.3125 -0.15625 "/></g></g></g><g fill="#12465a" fill-opacity="1"><g transform="translate(124.863561, 174.322078)"><g><path d="M 1.171875 -0.140625 L 1.171875 -4.3125 L 0.3125 -4.3125 C 0.207031 -4.3125 0.140625 -4.335938 0.109375 -4.390625 C 0.0664062 -4.453125 0.046875 -4.566406 0.046875 -4.734375 C 0.046875 -4.992188 0.125 -5.125 0.28125 -5.125 L 2.765625 -5.125 C 3.023438 -5.125 3.15625 -5.050781 3.15625 -4.90625 C 3.15625 -4.507812 3.046875 -4.3125 2.828125 -4.3125 L 2.0625 -4.3125 L 2.125 -2.921875 L 2.125 -0.15625 C 2.125 -0.0703125 2.125 -0.015625 2.125 0.015625 C 2.101562 0.078125 2.015625 0.109375 1.859375 0.109375 C 1.398438 0.109375 1.171875 0.0234375 1.171875 -0.140625 Z M 1.171875 -0.140625 "/></g></g></g><g fill="#12465a" fill-opacity="1"><g transform="translate(129.324953, 174.322078)"><g><path d="M 2.578125 -3.09375 C 2.753906 -3.09375 2.84375 -3.015625 2.84375 -2.859375 C 2.84375 -2.628906 2.828125 -2.472656 2.796875 -2.390625 C 2.773438 -2.316406 2.707031 -2.28125 2.59375 -2.28125 L 1.265625 -2.28125 L 1.265625 -0.828125 L 2.828125 -0.828125 C 2.941406 -0.816406 3.019531 -0.789062 3.0625 -0.75 C 3.101562 -0.71875 3.125 -0.660156 3.125 -0.578125 C 3.125 -0.359375 3.101562 -0.207031 3.0625 -0.125 C 3.019531 -0.0390625 2.9375 0 2.8125 0 L 0.421875 0 L 0.3125 -0.109375 L 0.3125 -5.125 L 2.71875 -5.125 C 2.914062 -5.113281 3.015625 -5.039062 3.015625 -4.90625 C 3.015625 -4.78125 3.007812 -4.679688 3 -4.609375 C 2.988281 -4.546875 2.957031 -4.476562 2.90625 -4.40625 C 2.863281 -4.34375 2.796875 -4.3125 2.703125 -4.3125 L 1.1875 -4.3125 L 1.265625 -3.09375 Z M 2.578125 -3.09375 "/></g></g></g><g fill="#12465a" fill-opacity="1"><g transform="translate(133.87488, 174.322078)"><g><path d="M 0.3125 -0.15625 L 0.3125 -4.984375 C 0.3125 -5.148438 0.472656 -5.234375 0.796875 -5.234375 C 0.867188 -5.234375 0.921875 -5.226562 0.953125 -5.21875 C 0.992188 -5.21875 1.039062 -5.195312 1.09375 -5.15625 C 1.15625 -5.125 1.210938 -5.070312 1.265625 -5 L 2.484375 -2.125 L 2.4375 -4.984375 C 2.4375 -5.148438 2.597656 -5.234375 2.921875 -5.234375 C 3.066406 -5.234375 3.160156 -5.21875 3.203125 -5.1875 C 3.253906 -5.15625 3.285156 -5.085938 3.296875 -4.984375 L 3.40625 -2.9375 L 3.40625 -0.140625 C 3.40625 -0.0664062 3.398438 -0.015625 3.390625 0.015625 C 3.367188 0.078125 3.28125 0.109375 3.125 0.109375 C 2.832031 0.109375 2.65625 0.0234375 2.59375 -0.140625 L 1.25 -2.96875 L 1.265625 -0.15625 C 1.265625 -0.0703125 1.257812 -0.015625 1.25 0.015625 C 1.226562 0.078125 1.140625 0.109375 0.984375 0.109375 C 0.535156 0.109375 0.3125 0.0195312 0.3125 -0.15625 Z M 0.3125 -0.15625 "/></g></g></g><g fill="#12465a" fill-opacity="1"><g transform="translate(138.833447, 174.322078)"><g><path d="M 0.40625 -0.828125 L 0.640625 -0.828125 L 0.640625 -4.3125 L 0.4375 -4.3125 C 0.351562 -4.3125 0.296875 -4.335938 0.265625 -4.390625 C 0.234375 -4.453125 0.21875 -4.566406 0.21875 -4.734375 C 0.21875 -4.992188 0.289062 -5.125 0.4375 -5.125 L 1.640625 -5.125 C 1.835938 -5.125 1.9375 -5.050781 1.9375 -4.90625 C 1.9375 -4.507812 1.859375 -4.3125 1.703125 -4.3125 L 1.53125 -4.3125 L 1.59375 -2.9375 L 1.609375 -0.828125 L 1.8125 -0.828125 C 1.96875 -0.816406 2.046875 -0.742188 2.046875 -0.609375 C 2.035156 -0.203125 1.925781 0 1.71875 0 L 0.421875 0 C 0.347656 0 0.296875 -0.03125 0.265625 -0.09375 C 0.234375 -0.15625 0.21875 -0.269531 0.21875 -0.4375 C 0.21875 -0.695312 0.28125 -0.828125 0.40625 -0.828125 Z M 0.40625 -0.828125 "/></g></g></g><g fill="#12465a" fill-opacity="1"><g transform="translate(142.307311, 174.322078)"><g><path d="M 2.8125 -0.140625 L 2.8125 -3.234375 L 2.359375 -2.40625 L 1.671875 -2.40625 L 1.265625 -3.21875 L 1.265625 -0.15625 C 1.265625 -0.0703125 1.257812 -0.015625 1.25 0.015625 C 1.226562 0.078125 1.140625 0.109375 0.984375 0.109375 C 0.535156 0.109375 0.3125 0.0234375 0.3125 -0.140625 L 0.3125 -4.96875 C 0.3125 -5.144531 0.46875 -5.234375 0.78125 -5.234375 C 1.09375 -5.234375 1.28125 -5.148438 1.34375 -4.984375 L 2.03125 -3.21875 L 2.75 -4.984375 C 2.789062 -5.085938 2.835938 -5.15625 2.890625 -5.1875 C 2.941406 -5.21875 3.03125 -5.234375 3.15625 -5.234375 C 3.488281 -5.234375 3.65625 -5.144531 3.65625 -4.96875 L 3.765625 -2.9375 L 3.765625 -0.1875 C 3.765625 -0.0507812 3.75 0.03125 3.71875 0.0625 C 3.695312 0.09375 3.617188 0.109375 3.484375 0.109375 C 3.347656 0.109375 3.234375 0.101562 3.140625 0.09375 C 3.054688 0.0820312 2.976562 0.0546875 2.90625 0.015625 C 2.84375 -0.015625 2.8125 -0.0664062 2.8125 -0.140625 Z M 2.8125 -0.140625 "/></g></g></g><g fill="#12465a" fill-opacity="1"><g transform="translate(147.633646, 174.322078)"><g><path d="M 0.40625 -0.828125 L 0.640625 -0.828125 L 0.640625 -4.3125 L 0.4375 -4.3125 C 0.351562 -4.3125 0.296875 -4.335938 0.265625 -4.390625 C 0.234375 -4.453125 0.21875 -4.566406 0.21875 -4.734375 C 0.21875 -4.992188 0.289062 -5.125 0.4375 -5.125 L 1.640625 -5.125 C 1.835938 -5.125 1.9375 -5.050781 1.9375 -4.90625 C 1.9375 -4.507812 1.859375 -4.3125 1.703125 -4.3125 L 1.53125 -4.3125 L 1.59375 -2.9375 L 1.609375 -0.828125 L 1.8125 -0.828125 C 1.96875 -0.816406 2.046875 -0.742188 2.046875 -0.609375 C 2.035156 -0.203125 1.925781 0 1.71875 0 L 0.421875 0 C 0.347656 0 0.296875 -0.03125 0.265625 -0.09375 C 0.234375 -0.15625 0.21875 -0.269531 0.21875 -0.4375 C 0.21875 -0.695312 0.28125 -0.828125 0.40625 -0.828125 Z M 0.40625 -0.828125 "/></g></g></g><g fill="#12465a" fill-opacity="1"><g transform="translate(151.10751, 174.322078)"><g><path d="M 2.578125 -3.09375 C 2.753906 -3.09375 2.84375 -3.015625 2.84375 -2.859375 C 2.84375 -2.628906 2.828125 -2.472656 2.796875 -2.390625 C 2.773438 -2.316406 2.707031 -2.28125 2.59375 -2.28125 L 1.265625 -2.28125 L 1.265625 -0.828125 L 2.828125 -0.828125 C 2.941406 -0.816406 3.019531 -0.789062 3.0625 -0.75 C 3.101562 -0.71875 3.125 -0.660156 3.125 -0.578125 C 3.125 -0.359375 3.101562 -0.207031 3.0625 -0.125 C 3.019531 -0.0390625 2.9375 0 2.8125 0 L 0.421875 0 L 0.3125 -0.109375 L 0.3125 -5.125 L 2.71875 -5.125 C 2.914062 -5.113281 3.015625 -5.039062 3.015625 -4.90625 C 3.015625 -4.78125 3.007812 -4.679688 3 -4.609375 C 2.988281 -4.546875 2.957031 -4.476562 2.90625 -4.40625 C 2.863281 -4.34375 2.796875 -4.3125 2.703125 -4.3125 L 1.1875 -4.3125 L 1.265625 -3.09375 Z M 2.578125 -3.09375 "/></g></g></g><g fill="#12465a" fill-opacity="1"><g transform="translate(155.657437, 174.322078)"><g><path d="M 0.3125 -0.15625 L 0.3125 -4.984375 C 0.3125 -5.148438 0.472656 -5.234375 0.796875 -5.234375 C 0.867188 -5.234375 0.921875 -5.226562 0.953125 -5.21875 C 0.992188 -5.21875 1.039062 -5.195312 1.09375 -5.15625 C 1.15625 -5.125 1.210938 -5.070312 1.265625 -5 L 2.484375 -2.125 L 2.4375 -4.984375 C 2.4375 -5.148438 2.597656 -5.234375 2.921875 -5.234375 C 3.066406 -5.234375 3.160156 -5.21875 3.203125 -5.1875 C 3.253906 -5.15625 3.285156 -5.085938 3.296875 -4.984375 L 3.40625 -2.9375 L 3.40625 -0.140625 C 3.40625 -0.0664062 3.398438 -0.015625 3.390625 0.015625 C 3.367188 0.078125 3.28125 0.109375 3.125 0.109375 C 2.832031 0.109375 2.65625 0.0234375 2.59375 -0.140625 L 1.25 -2.96875 L 1.265625 -0.15625 C 1.265625 -0.0703125 1.257812 -0.015625 1.25 0.015625 C 1.226562 0.078125 1.140625 0.109375 0.984375 0.109375 C 0.535156 0.109375 0.3125 0.0195312 0.3125 -0.15625 Z M 0.3125 -0.15625 "/></g></g></g><g fill="#12465a" fill-opacity="1"><g transform="translate(160.616004, 174.322078)"><g><path d="M 1.171875 -0.140625 L 1.171875 -4.3125 L 0.3125 -4.3125 C 0.207031 -4.3125 0.140625 -4.335938 0.109375 -4.390625 C 0.0664062 -4.453125 0.046875 -4.566406 0.046875 -4.734375 C 0.046875 -4.992188 0.125 -5.125 0.28125 -5.125 L 2.765625 -5.125 C 3.023438 -5.125 3.15625 -5.050781 3.15625 -4.90625 C 3.15625 -4.507812 3.046875 -4.3125 2.828125 -4.3125 L 2.0625 -4.3125 L 2.125 -2.921875 L 2.125 -0.15625 C 2.125 -0.0703125 2.125 -0.015625 2.125 0.015625 C 2.101562 0.078125 2.015625 0.109375 1.859375 0.109375 C 1.398438 0.109375 1.171875 0.0234375 1.171875 -0.140625 Z M 1.171875 -0.140625 "/></g></g></g><g fill="#12465a" fill-opacity="1"><g transform="translate(165.077396, 174.322078)"><g><path d="M 0.25 -2.53125 C 0.25 -3.25 0.304688 -3.800781 0.421875 -4.1875 C 0.535156 -4.570312 0.710938 -4.84375 0.953125 -5 C 1.203125 -5.15625 1.5625 -5.234375 2.03125 -5.234375 C 2.5 -5.234375 2.859375 -5.15625 3.109375 -5 C 3.359375 -4.84375 3.535156 -4.570312 3.640625 -4.1875 C 3.753906 -3.8125 3.8125 -3.257812 3.8125 -2.53125 C 3.8125 -1.53125 3.679688 -0.835938 3.421875 -0.453125 C 3.171875 -0.078125 2.707031 0.109375 2.03125 0.109375 C 1.351562 0.109375 0.882812 -0.078125 0.625 -0.453125 C 0.375 -0.835938 0.25 -1.53125 0.25 -2.53125 Z M 1.390625 -3.796875 C 1.359375 -3.628906 1.335938 -3.457031 1.328125 -3.28125 C 1.328125 -3.101562 1.328125 -2.804688 1.328125 -2.390625 C 1.328125 -1.972656 1.34375 -1.625 1.375 -1.34375 C 1.40625 -1.0625 1.441406 -0.875 1.484375 -0.78125 C 1.523438 -0.695312 1.585938 -0.65625 1.671875 -0.65625 C 2.066406 -0.65625 2.328125 -0.695312 2.453125 -0.78125 C 2.492188 -0.8125 2.535156 -0.863281 2.578125 -0.9375 C 2.628906 -1.007812 2.660156 -1.082031 2.671875 -1.15625 C 2.691406 -1.238281 2.707031 -1.351562 2.71875 -1.5 C 2.738281 -1.695312 2.75 -2.046875 2.75 -2.546875 C 2.75 -3.054688 2.734375 -3.457031 2.703125 -3.75 C 2.679688 -4.039062 2.644531 -4.238281 2.59375 -4.34375 C 2.550781 -4.457031 2.492188 -4.515625 2.421875 -4.515625 C 2.234375 -4.515625 2.082031 -4.503906 1.96875 -4.484375 C 1.863281 -4.472656 1.765625 -4.4375 1.671875 -4.375 C 1.585938 -4.3125 1.523438 -4.238281 1.484375 -4.15625 C 1.453125 -4.082031 1.421875 -3.960938 1.390625 -3.796875 Z M 1.390625 -3.796875 "/></g></g></g><g fill="#12465a" fill-opacity="1"><g transform="translate(170.403729, 174.322078)"><g/></g></g><g fill="#12465a" fill-opacity="1"><g transform="translate(173.475776, 174.322078)"><g><path d="M 1.796875 -5.234375 C 2.296875 -5.234375 2.671875 -5.160156 2.921875 -5.015625 C 3.171875 -4.878906 3.351562 -4.625 3.46875 -4.25 C 3.582031 -3.882812 3.640625 -3.335938 3.640625 -2.609375 C 3.640625 -1.597656 3.507812 -0.890625 3.25 -0.484375 C 2.988281 -0.0859375 2.503906 0.109375 1.796875 0.109375 C 1.628906 0.109375 1.132812 0.0703125 0.3125 0 L 0.3125 -5.109375 C 1 -5.191406 1.492188 -5.234375 1.796875 -5.234375 Z M 2.15625 -4.421875 C 1.757812 -4.421875 1.507812 -4.410156 1.40625 -4.390625 C 1.3125 -4.378906 1.265625 -4.335938 1.265625 -4.265625 L 1.265625 -0.84375 C 1.265625 -0.789062 1.296875 -0.757812 1.359375 -0.75 C 1.421875 -0.75 1.546875 -0.75 1.734375 -0.75 C 1.921875 -0.75 2.050781 -0.753906 2.125 -0.765625 C 2.207031 -0.785156 2.28125 -0.820312 2.34375 -0.875 C 2.414062 -0.925781 2.460938 -1.03125 2.484375 -1.1875 C 2.523438 -1.476562 2.546875 -1.925781 2.546875 -2.53125 C 2.546875 -3.789062 2.414062 -4.421875 2.15625 -4.421875 Z M 2.15625 -4.421875 "/></g></g></g><g fill="#12465a" fill-opacity="1"><g transform="translate(178.625041, 174.322078)"><g><path d="M 2.578125 -3.09375 C 2.753906 -3.09375 2.84375 -3.015625 2.84375 -2.859375 C 2.84375 -2.628906 2.828125 -2.472656 2.796875 -2.390625 C 2.773438 -2.316406 2.707031 -2.28125 2.59375 -2.28125 L 1.265625 -2.28125 L 1.265625 -0.828125 L 2.828125 -0.828125 C 2.941406 -0.816406 3.019531 -0.789062 3.0625 -0.75 C 3.101562 -0.71875 3.125 -0.660156 3.125 -0.578125 C 3.125 -0.359375 3.101562 -0.207031 3.0625 -0.125 C 3.019531 -0.0390625 2.9375 0 2.8125 0 L 0.421875 0 L 0.3125 -0.109375 L 0.3125 -5.125 L 2.71875 -5.125 C 2.914062 -5.113281 3.015625 -5.039062 3.015625 -4.90625 C 3.015625 -4.78125 3.007812 -4.679688 3 -4.609375 C 2.988281 -4.546875 2.957031 -4.476562 2.90625 -4.40625 C 2.863281 -4.34375 2.796875 -4.3125 2.703125 -4.3125 L 1.1875 -4.3125 L 1.265625 -3.09375 Z M 2.578125 -3.09375 "/></g></g></g><g fill="#12465a" fill-opacity="1"><g transform="translate(183.174968, 174.322078)"><g/></g></g><g fill="#12465a" fill-opacity="1"><g transform="translate(186.247016, 174.322078)"><g><path d="M 2.96875 -0.796875 C 3.082031 -0.796875 3.140625 -0.722656 3.140625 -0.578125 C 3.140625 -0.441406 3.140625 -0.335938 3.140625 -0.265625 C 3.117188 -0.0976562 3.046875 -0.00390625 2.921875 0.015625 C 2.515625 0.078125 2.210938 0.109375 2.015625 0.109375 C 1.335938 0.109375 0.867188 -0.078125 0.609375 -0.453125 C 0.359375 -0.835938 0.234375 -1.53125 0.234375 -2.53125 C 0.234375 -3.257812 0.289062 -3.8125 0.40625 -4.1875 C 0.519531 -4.570312 0.695312 -4.84375 0.9375 -5 C 1.1875 -5.15625 1.554688 -5.234375 2.046875 -5.234375 C 2.546875 -5.234375 2.910156 -5.15625 3.140625 -5 C 3.179688 -4.96875 3.203125 -4.925781 3.203125 -4.875 C 3.203125 -4.832031 3.179688 -4.75 3.140625 -4.625 C 3.097656 -4.5 3.054688 -4.410156 3.015625 -4.359375 C 2.972656 -4.304688 2.929688 -4.28125 2.890625 -4.28125 C 2.847656 -4.28125 2.816406 -4.285156 2.796875 -4.296875 C 2.453125 -4.359375 2.15625 -4.390625 1.90625 -4.390625 C 1.664062 -4.390625 1.507812 -4.253906 1.4375 -3.984375 C 1.363281 -3.710938 1.328125 -3.269531 1.328125 -2.65625 C 1.328125 -2.050781 1.34375 -1.625 1.375 -1.375 C 1.40625 -1.132812 1.460938 -0.96875 1.546875 -0.875 C 1.628906 -0.78125 1.765625 -0.734375 1.953125 -0.734375 C 2.140625 -0.734375 2.351562 -0.742188 2.59375 -0.765625 C 2.832031 -0.785156 2.957031 -0.796875 2.96875 -0.796875 Z M 2.96875 -0.796875 "/></g></g></g><g fill="#12465a" fill-opacity="1"><g transform="translate(190.899101, 174.322078)"><g><path d="M 0.25 -2.53125 C 0.25 -3.25 0.304688 -3.800781 0.421875 -4.1875 C 0.535156 -4.570312 0.710938 -4.84375 0.953125 -5 C 1.203125 -5.15625 1.5625 -5.234375 2.03125 -5.234375 C 2.5 -5.234375 2.859375 -5.15625 3.109375 -5 C 3.359375 -4.84375 3.535156 -4.570312 3.640625 -4.1875 C 3.753906 -3.8125 3.8125 -3.257812 3.8125 -2.53125 C 3.8125 -1.53125 3.679688 -0.835938 3.421875 -0.453125 C 3.171875 -0.078125 2.707031 0.109375 2.03125 0.109375 C 1.351562 0.109375 0.882812 -0.078125 0.625 -0.453125 C 0.375 -0.835938 0.25 -1.53125 0.25 -2.53125 Z M 1.390625 -3.796875 C 1.359375 -3.628906 1.335938 -3.457031 1.328125 -3.28125 C 1.328125 -3.101562 1.328125 -2.804688 1.328125 -2.390625 C 1.328125 -1.972656 1.34375 -1.625 1.375 -1.34375 C 1.40625 -1.0625 1.441406 -0.875 1.484375 -0.78125 C 1.523438 -0.695312 1.585938 -0.65625 1.671875 -0.65625 C 2.066406 -0.65625 2.328125 -0.695312 2.453125 -0.78125 C 2.492188 -0.8125 2.535156 -0.863281 2.578125 -0.9375 C 2.628906 -1.007812 2.660156 -1.082031 2.671875 -1.15625 C 2.691406 -1.238281 2.707031 -1.351562 2.71875 -1.5 C 2.738281 -1.695312 2.75 -2.046875 2.75 -2.546875 C 2.75 -3.054688 2.734375 -3.457031 2.703125 -3.75 C 2.679688 -4.039062 2.644531 -4.238281 2.59375 -4.34375 C 2.550781 -4.457031 2.492188 -4.515625 2.421875 -4.515625 C 2.234375 -4.515625 2.082031 -4.503906 1.96875 -4.484375 C 1.863281 -4.472656 1.765625 -4.4375 1.671875 -4.375 C 1.585938 -4.3125 1.523438 -4.238281 1.484375 -4.15625 C 1.453125 -4.082031 1.421875 -3.960938 1.390625 -3.796875 Z M 1.390625 -3.796875 "/></g></g></g><g fill="#12465a" fill-opacity="1"><g transform="translate(196.225434, 174.322078)"><g><path d="M 0.3125 -0.15625 L 0.3125 -4.984375 C 0.3125 -5.148438 0.472656 -5.234375 0.796875 -5.234375 C 0.867188 -5.234375 0.921875 -5.226562 0.953125 -5.21875 C 0.992188 -5.21875 1.039062 -5.195312 1.09375 -5.15625 C 1.15625 -5.125 1.210938 -5.070312 1.265625 -5 L 2.484375 -2.125 L 2.4375 -4.984375 C 2.4375 -5.148438 2.597656 -5.234375 2.921875 -5.234375 C 3.066406 -5.234375 3.160156 -5.21875 3.203125 -5.1875 C 3.253906 -5.15625 3.285156 -5.085938 3.296875 -4.984375 L 3.40625 -2.9375 L 3.40625 -0.140625 C 3.40625 -0.0664062 3.398438 -0.015625 3.390625 0.015625 C 3.367188 0.078125 3.28125 0.109375 3.125 0.109375 C 2.832031 0.109375 2.65625 0.0234375 2.59375 -0.140625 L 1.25 -2.96875 L 1.265625 -0.15625 C 1.265625 -0.0703125 1.257812 -0.015625 1.25 0.015625 C 1.226562 0.078125 1.140625 0.109375 0.984375 0.109375 C 0.535156 0.109375 0.3125 0.0195312 0.3125 -0.15625 Z M 0.3125 -0.15625 "/></g></g></g><g fill="#12465a" fill-opacity="1"><g transform="translate(201.184001, 174.322078)"><g><path d="M 0.3125 0 L 0.3125 -5.125 L 2.65625 -5.125 C 2.894531 -5.113281 3.015625 -5.046875 3.015625 -4.921875 C 3.015625 -4.691406 2.988281 -4.53125 2.9375 -4.4375 C 2.894531 -4.351562 2.789062 -4.3125 2.625 -4.3125 L 1.171875 -4.3125 L 1.25 -3.09375 L 2.671875 -3.09375 C 2.859375 -3.09375 2.953125 -3.019531 2.953125 -2.875 C 2.953125 -2.644531 2.929688 -2.488281 2.890625 -2.40625 C 2.847656 -2.320312 2.757812 -2.28125 2.625 -2.28125 L 1.265625 -2.28125 L 1.265625 0 C 1.265625 0.03125 1.257812 0.046875 1.25 0.046875 C 1.226562 0.0859375 1.140625 0.109375 0.984375 0.109375 C 0.835938 0.109375 0.6875 0.0976562 0.53125 0.078125 C 0.382812 0.0546875 0.3125 0.03125 0.3125 0 Z M 0.3125 0 "/></g></g></g><g fill="#12465a" fill-opacity="1"><g transform="translate(205.43427, 174.322078)"><g><path d="M 0.40625 -0.828125 L 0.640625 -0.828125 L 0.640625 -4.3125 L 0.4375 -4.3125 C 0.351562 -4.3125 0.296875 -4.335938 0.265625 -4.390625 C 0.234375 -4.453125 0.21875 -4.566406 0.21875 -4.734375 C 0.21875 -4.992188 0.289062 -5.125 0.4375 -5.125 L 1.640625 -5.125 C 1.835938 -5.125 1.9375 -5.050781 1.9375 -4.90625 C 1.9375 -4.507812 1.859375 -4.3125 1.703125 -4.3125 L 1.53125 -4.3125 L 1.59375 -2.9375 L 1.609375 -0.828125 L 1.8125 -0.828125 C 1.96875 -0.816406 2.046875 -0.742188 2.046875 -0.609375 C 2.035156 -0.203125 1.925781 0 1.71875 0 L 0.421875 0 C 0.347656 0 0.296875 -0.03125 0.265625 -0.09375 C 0.234375 -0.15625 0.21875 -0.269531 0.21875 -0.4375 C 0.21875 -0.695312 0.28125 -0.828125 0.40625 -0.828125 Z M 0.40625 -0.828125 "/></g></g></g><g fill="#12465a" fill-opacity="1"><g transform="translate(208.908134, 174.322078)"><g><path d="M 2.03125 -5.234375 C 2.34375 -5.234375 2.515625 -5.164062 2.546875 -5.03125 L 3 -2.9375 L 3.46875 -0.15625 C 3.476562 -0.101562 3.484375 -0.0546875 3.484375 -0.015625 C 3.484375 0.015625 3.472656 0.0390625 3.453125 0.0625 C 3.429688 0.09375 3.351562 0.109375 3.21875 0.109375 C 2.8125 0.109375 2.597656 0.0195312 2.578125 -0.15625 L 2.34375 -1.546875 L 1.390625 -1.546875 L 1.171875 -0.140625 C 1.160156 -0.046875 1.144531 0.015625 1.125 0.046875 C 1.101562 0.078125 1.070312 0.09375 1.03125 0.09375 C 1 0.101562 0.941406 0.109375 0.859375 0.109375 L 0.671875 0.109375 C 0.503906 0.109375 0.40625 0.0976562 0.375 0.078125 C 0.269531 0.046875 0.210938 0.00390625 0.203125 -0.046875 C 0.191406 -0.0664062 0.1875 -0.0820312 0.1875 -0.09375 C 0.1875 -0.113281 0.234375 -0.414062 0.328125 -1 C 0.429688 -1.582031 0.550781 -2.273438 0.6875 -3.078125 C 0.820312 -3.878906 0.910156 -4.40625 0.953125 -4.65625 C 0.992188 -4.90625 1.019531 -5.046875 1.03125 -5.078125 C 1.050781 -5.179688 1.382812 -5.234375 2.03125 -5.234375 Z M 1.828125 -4.34375 L 1.515625 -2.375 L 2.1875 -2.375 Z M 1.828125 -4.34375 "/></g></g></g><g fill="#12465a" fill-opacity="1"><g transform="translate(213.839457, 174.322078)"><g><path d="M 0.3125 -0.15625 L 0.3125 -4.984375 C 0.3125 -5.148438 0.472656 -5.234375 0.796875 -5.234375 C 0.867188 -5.234375 0.921875 -5.226562 0.953125 -5.21875 C 0.992188 -5.21875 1.039062 -5.195312 1.09375 -5.15625 C 1.15625 -5.125 1.210938 -5.070312 1.265625 -5 L 2.484375 -2.125 L 2.4375 -4.984375 C 2.4375 -5.148438 2.597656 -5.234375 2.921875 -5.234375 C 3.066406 -5.234375 3.160156 -5.21875 3.203125 -5.1875 C 3.253906 -5.15625 3.285156 -5.085938 3.296875 -4.984375 L 3.40625 -2.9375 L 3.40625 -0.140625 C 3.40625 -0.0664062 3.398438 -0.015625 3.390625 0.015625 C 3.367188 0.078125 3.28125 0.109375 3.125 0.109375 C 2.832031 0.109375 2.65625 0.0234375 2.59375 -0.140625 L 1.25 -2.96875 L 1.265625 -0.15625 C 1.265625 -0.0703125 1.257812 -0.015625 1.25 0.015625 C 1.226562 0.078125 1.140625 0.109375 0.984375 0.109375 C 0.535156 0.109375 0.3125 0.0195312 0.3125 -0.15625 Z M 0.3125 -0.15625 "/></g></g></g><g fill="#12465a" fill-opacity="1"><g transform="translate(218.798024, 174.322078)"><g><path d="M 3.0625 0 L 0.40625 0 L 0.296875 -0.109375 L 0.296875 -0.828125 L 2.234375 -4.3125 L 0.484375 -4.3125 C 0.367188 -4.3125 0.296875 -4.335938 0.265625 -4.390625 C 0.222656 -4.453125 0.203125 -4.554688 0.203125 -4.703125 C 0.203125 -4.847656 0.21875 -4.953125 0.25 -5.015625 C 0.28125 -5.085938 0.347656 -5.125 0.453125 -5.125 L 3.1875 -5.125 L 3.296875 -5.015625 L 3.296875 -4.421875 L 1.421875 -0.828125 L 3.03125 -0.828125 C 3.175781 -0.816406 3.273438 -0.796875 3.328125 -0.765625 C 3.378906 -0.734375 3.40625 -0.679688 3.40625 -0.609375 C 3.40625 -0.203125 3.289062 0 3.0625 0 Z M 3.0625 0 "/></g></g></g><g fill="#12465a" fill-opacity="1"><g transform="translate(223.668047, 174.322078)"><g><path d="M 2.03125 -5.234375 C 2.34375 -5.234375 2.515625 -5.164062 2.546875 -5.03125 L 3 -2.9375 L 3.46875 -0.15625 C 3.476562 -0.101562 3.484375 -0.0546875 3.484375 -0.015625 C 3.484375 0.015625 3.472656 0.0390625 3.453125 0.0625 C 3.429688 0.09375 3.351562 0.109375 3.21875 0.109375 C 2.8125 0.109375 2.597656 0.0195312 2.578125 -0.15625 L 2.34375 -1.546875 L 1.390625 -1.546875 L 1.171875 -0.140625 C 1.160156 -0.046875 1.144531 0.015625 1.125 0.046875 C 1.101562 0.078125 1.070312 0.09375 1.03125 0.09375 C 1 0.101562 0.941406 0.109375 0.859375 0.109375 L 0.671875 0.109375 C 0.503906 0.109375 0.40625 0.0976562 0.375 0.078125 C 0.269531 0.046875 0.210938 0.00390625 0.203125 -0.046875 C 0.191406 -0.0664062 0.1875 -0.0820312 0.1875 -0.09375 C 0.1875 -0.113281 0.234375 -0.414062 0.328125 -1 C 0.429688 -1.582031 0.550781 -2.273438 0.6875 -3.078125 C 0.820312 -3.878906 0.910156 -4.40625 0.953125 -4.65625 C 0.992188 -4.90625 1.019531 -5.046875 1.03125 -5.078125 C 1.050781 -5.179688 1.382812 -5.234375 2.03125 -5.234375 Z M 1.828125 -4.34375 L 1.515625 -2.375 L 2.1875 -2.375 Z M 1.828125 -4.34375 "/></g></g></g><path fill="#29303a" d="M 220.945312 144.710938 L 184.800781 144.710938 L 197.507812 85.667969 L 202.882812 85.667969 L 220.945312 111.234375 Z M 220.945312 144.710938 " fill-opacity="1" fill-rule="nonzero"/><path fill="#d7b1b1" d="M 172.742188 101.816406 L 178.78125 121.585938 C 178.78125 121.585938 177.671875 123.519531 173.585938 124.761719 C 169.496094 126.007812 167.5 125.03125 167.5 125.03125 L 161.457031 105.261719 L 159.277344 91.132812 C 158.457031 91.265625 157.636719 90.800781 157.367188 89.976562 C 157.101562 89.089844 157.589844 88.132812 158.5 87.867188 L 158.769531 87.777344 C 158.769531 87.777344 162.167969 86.734375 161.988281 86.800781 C 161.789062 86.867188 165.210938 85.824219 165.210938 85.824219 L 165.476562 85.734375 C 166.363281 85.46875 167.320312 85.957031 167.585938 86.867188 C 167.832031 87.6875 167.429688 88.554688 166.652344 88.886719 Z M 215.566406 111.257812 L 197.507812 85.691406 L 179.449219 111.257812 L 179.449219 144.734375 L 215.589844 144.734375 L 215.589844 111.257812 Z M 215.566406 111.257812 " fill-opacity="1" fill-rule="nonzero"/><g clip-path="url(#da05056e34)"><path fill="#29303a" d="M 157.746094 61.898438 L 156.859375 64.855469 L 163.433594 86.378906 L 160.523438 87.265625 L 153.949219 65.742188 L 151.570312 63.789062 L 150.683594 55.078125 L 153.613281 54.191406 Z M 172.183594 74.582031 C 172.183594 74.605469 172.207031 74.605469 172.207031 74.628906 C 172.363281 74.871094 172.539062 75.136719 172.71875 75.359375 C 174.25 77.757812 174.363281 79.824219 173.960938 82.648438 C 173.5625 85.402344 170.609375 106.257812 169.917969 111.257812 L 179.25 111.257812 C 180.183594 104.683594 182.757812 86.511719 183.113281 83.957031 C 183.492188 81.226562 184.136719 79.316406 186.136719 77.492188 C 188.890625 75.539062 190.554688 72.207031 190.199219 68.609375 C 189.824219 64.765625 187.269531 61.65625 183.871094 60.410156 L 184.511719 67.164062 C 184.691406 69.097656 183.292969 70.828125 181.335938 71.007812 L 179.25 71.207031 C 177.316406 71.382812 175.582031 69.984375 175.40625 68.03125 L 174.785156 61.65625 C 172.097656 63.609375 170.453125 66.875 170.785156 70.429688 C 170.917969 71.917969 171.40625 73.339844 172.183594 74.582031 Z M 172.183594 74.582031 " fill-opacity="1" fill-rule="nonzero"/></g><path fill="#5f6f86" d="M 198.484375 102.859375 L 142.417969 102.859375 L 142.417969 94.128906 L 198.484375 94.128906 C 198.484375 94.128906 199.328125 94.53125 199.328125 98.507812 C 199.328125 102.484375 198.484375 102.859375 198.484375 102.859375 Z M 198.484375 102.859375 " fill-opacity="1" fill-rule="nonzero"/><path fill="#29303a" d="M 159.058594 144.710938 L 122.914062 144.710938 L 135.621094 85.691406 L 140.996094 85.691406 L 159.058594 111.257812 Z M 159.058594 144.710938 " fill-opacity="1" fill-rule="nonzero"/><g clip-path="url(#fe86e93ac3)"><path fill="#d7b1b1" d="M 153.679688 144.710938 L 117.539062 144.710938 L 117.539062 111.257812 L 135.621094 85.691406 L 153.679688 111.257812 Z M 162.367188 152.308594 L 224.03125 152.308594 L 224.03125 144.734375 L 162.367188 144.734375 Z M 162.367188 152.308594 " fill-opacity="1" fill-rule="nonzero"/></g><g clip-path="url(#c3d92ce1c1)"><path fill="#5f6f86" d="M 215.566406 144.710938 L 159.058594 144.710938 L 159.058594 111.257812 L 215.566406 111.257812 Z M 133.3125 114.613281 L 127.847656 114.613281 C 127.535156 114.613281 127.269531 114.878906 127.269531 115.1875 L 127.269531 123.71875 C 127.269531 124.03125 127.535156 124.296875 127.847656 124.296875 L 133.3125 124.296875 C 133.621094 124.296875 133.890625 124.03125 133.890625 123.71875 L 133.890625 115.210938 C 133.890625 114.878906 133.621094 114.613281 133.3125 114.613281 Z M 142.128906 114.613281 L 136.664062 114.613281 C 136.355469 114.613281 136.089844 114.878906 136.089844 115.1875 L 136.089844 123.71875 C 136.089844 124.03125 136.355469 124.296875 136.664062 124.296875 L 142.128906 124.296875 C 142.441406 124.296875 142.707031 124.03125 142.707031 123.71875 L 142.707031 115.210938 C 142.707031 114.878906 142.441406 114.613281 142.128906 114.613281 Z M 133.3125 127.695312 L 127.847656 127.695312 C 127.535156 127.695312 127.269531 127.960938 127.269531 128.273438 L 127.269531 136.78125 C 127.269531 137.089844 127.535156 137.359375 127.847656 137.359375 L 133.3125 137.359375 C 133.621094 137.359375 133.890625 137.089844 133.890625 136.78125 L 133.890625 128.273438 C 133.890625 127.960938 133.621094 127.695312 133.3125 127.695312 Z M 142.128906 127.695312 L 136.664062 127.695312 C 136.355469 127.695312 136.089844 127.960938 136.089844 128.273438 L 136.089844 136.78125 C 136.089844 137.089844 136.355469 137.359375 136.664062 137.359375 L 142.128906 137.359375 C 142.441406 137.359375 142.707031 137.089844 142.707031 136.78125 L 142.707031 128.273438 C 142.707031 127.960938 142.441406 127.695312 142.128906 127.695312 Z M 112.964844 152.308594 L 162.367188 152.308594 L 162.367188 144.734375 L 112.964844 144.734375 Z M 112.964844 152.308594 " fill-opacity="1" fill-rule="nonzero"/></g></svg>